<?xml version="1.0" standalone="no"?>
<!DOCTYPE svg PUBLIC "-//W3C//DTD SVG 20010904//EN"
 "http://www.w3.org/TR/2001/REC-SVG-20010904/DTD/svg10.dtd">
<svg version="1.0" xmlns="http://www.w3.org/2000/svg"
 width="1024.000000pt" height="1024.000000pt" viewBox="0 0 1024.000000 1024.000000"
 preserveAspectRatio="xMidYMid meet">
<metadata>
Created by potrace 1.14, written by Peter Selinger 2001-2017
</metadata>
<g transform="translate(0.000000,1024.000000) scale(0.100000,-0.100000)"
fill="#000000" stroke="none">
<path d="M4020 10062 c-30 -10 -73 -30 -96 -44 -60 -38 -2390 -2372 -2430
-2433 -54 -85 -75 -205 -54 -297 23 -96 167 -428 315 -727 247 -499 577 -1027
909 -1456 66 -85 225 -284 236 -295 3 -3 46 -52 95 -110 317 -370 731 -770
1135 -1095 25 -20 54 -45 66 -54 11 -10 94 -72 185 -139 90 -67 169 -127 176
-132 34 -28 400 -269 483 -318 52 -31 97 -60 98 -64 2 -5 8 -8 13 -8 5 0 38
-18 74 -40 36 -22 68 -40 71 -40 3 0 18 -8 32 -18 28 -19 134 -77 338 -182
103 -54 358 -176 449 -215 17 -7 51 -22 77 -34 26 -11 50 -21 53 -21 2 0 28
-11 57 -24 143 -67 271 -86 365 -56 113 37 101 25 1324 1249 652 652 1198
1204 1212 1227 119 191 62 450 -125 570 -20 13 -90 46 -156 73 -66 28 -150 64
-186 81 -37 16 -69 30 -71 30 -8 0 -411 201 -500 249 -142 77 -364 208 -506
299 -93 59 -430 291 -439 301 -3 3 -41 33 -85 66 -258 191 -536 435 -815 715
-344 344 -547 579 -807 935 -57 77 -106 145 -110 150 -50 63 -291 444 -382
602 -166 292 -369 707 -461 943 -60 155 -131 238 -246 292 -86 40 -209 48
-294 20z m92 -1302 c101 -196 119 -229 206 -380 30 -52 62 -108 72 -125 121
-210 412 -645 527 -790 4 -6 37 -48 73 -95 57 -76 238 -298 305 -375 42 -49
136 -154 195 -219 95 -105 410 -417 520 -516 58 -52 107 -96 110 -100 3 -3 59
-50 125 -105 66 -55 122 -102 125 -105 13 -14 200 -158 324 -251 143 -106 477
-332 602 -408 38 -23 78 -47 89 -54 46 -28 99 -60 133 -79 20 -11 71 -40 112
-63 112 -64 271 -148 392 -207 59 -29 108 -55 108 -58 0 -3 -375 -380 -832
-837 l-833 -833 -190 88 c-314 146 -736 379 -932 513 -23 16 -46 29 -52 29 -6
0 -11 4 -11 8 0 5 -10 13 -22 19 -13 6 -102 66 -198 133 -1028 721 -1845 1648
-2448 2780 -46 88 -115 223 -117 230 -1 3 -28 59 -59 125 -59 123 -86 183 -86
193 0 6 1664 1672 1666 1669 0 -1 44 -85 96 -187z"/>
<path d="M1680 6173 c-25 -43 -49 -86 -55 -95 -5 -10 -91 -158 -190 -329 -99
-171 -193 -335 -210 -363 -16 -29 -74 -129 -128 -222 -53 -94 -99 -179 -102
-190 -2 -10 -9 -36 -14 -57 -14 -56 -6 -154 17 -220 19 -52 96 -167 187 -278
17 -20 44 -53 60 -75 255 -329 754 -846 1105 -1145 41 -35 81 -70 89 -77 61
-58 501 -396 641 -492 19 -13 37 -28 38 -32 2 -4 8 -8 13 -8 4 0 52 -30 105
-66 773 -524 1749 -962 2679 -1203 190 -49 472 -112 565 -127 19 -3 66 -12
105 -20 38 -8 114 -22 170 -30 55 -9 111 -17 125 -19 14 -3 50 -7 80 -11 30
-3 75 -10 99 -14 172 -31 346 39 438 175 11 17 114 192 228 390 114 198 230
401 259 450 29 50 124 214 211 365 86 151 166 287 176 302 10 15 19 29 19 32
0 2 97 172 216 378 464 800 551 955 570 1010 23 69 20 237 -5 253 -4 2 -102
-90 -217 -206 -115 -116 -534 -536 -931 -933 l-722 -724 -107 -183 c-59 -101
-119 -205 -133 -230 -14 -25 -48 -84 -75 -130 l-49 -85 -66 12 c-36 7 -118 22
-181 34 -138 25 -465 96 -535 116 -27 7 -108 30 -180 49 -546 150 -1193 410
-1645 660 -47 26 -109 61 -138 77 -29 16 -74 42 -100 58 -26 16 -75 45 -109
65 -171 98 -678 453 -808 564 -17 14 -48 40 -69 56 -21 17 -44 35 -50 40 -6 6
-40 35 -76 65 -94 80 -129 112 -241 214 -145 134 -384 374 -508 511 -58 64
-128 143 -171 194 -25 29 -50 59 -55 65 -35 37 -105 129 -105 137 0 9 294 523
312 546 10 13 5 22 -127 228 -98 150 -207 334 -291 487 -33 59 -61 108 -65
108 -3 0 -25 -35 -49 -77z"/>
<path d="M1381 3873 c-6 -21 -11 -41 -11 -45 -1 -4 -7 -29 -15 -55 -14 -47
-220 -815 -275 -1023 -15 -58 -40 -150 -55 -204 -31 -114 -35 -198 -12 -276
19 -66 66 -143 114 -187 30 -28 258 -201 383 -290 190 -136 626 -412 799 -505
31 -17 88 -47 126 -68 205 -112 534 -270 715 -344 36 -15 79 -33 95 -41 152
-69 508 -196 805 -289 285 -88 710 -192 995 -242 254 -44 287 -50 435 -68 56
-8 74 -10 170 -21 30 -3 69 -8 85 -10 17 -2 73 -7 125 -10 52 -4 106 -9 120
-11 168 -26 1060 -25 1340 1 19 2 71 6 116 9 45 4 90 8 100 10 10 2 55 7 99
11 43 3 82 8 85 10 3 1 34 6 70 9 173 18 267 55 346 135 82 82 80 79 229 631
43 160 107 399 139 520 14 52 55 205 91 340 37 135 68 252 70 260 3 15 158
593 195 730 11 41 49 183 85 315 36 132 67 249 70 260 2 11 11 45 20 75 8 30
17 67 20 81 3 14 11 44 19 67 16 44 7 58 -12 20 -12 -24 -34 -64 -131 -232
-32 -55 -67 -117 -78 -136 -11 -19 -80 -138 -153 -265 -73 -126 -142 -246
-152 -265 -32 -55 -193 -335 -333 -575 -70 -121 -138 -238 -150 -260 -13 -22
-89 -154 -169 -293 -80 -140 -146 -256 -146 -259 0 -11 -88 -152 -123 -198
-47 -60 -115 -135 -123 -135 -3 0 -18 -8 -32 -19 -65 -45 -128 -73 -197 -86
-39 -7 -208 -7 -265 0 -97 13 -262 37 -283 41 -29 7 -121 11 -397 19 -124 4
-236 8 -250 10 -14 1 -65 5 -115 9 -89 7 -156 13 -225 21 -19 2 -53 6 -75 9
-100 12 -151 19 -166 21 -9 2 -40 6 -70 10 -30 3 -61 8 -69 10 -8 2 -35 7 -60
10 -24 4 -47 8 -50 10 -3 1 -27 6 -55 10 -27 3 -115 20 -194 36 -128 27 -200
44 -406 95 -186 46 -561 167 -790 254 -547 208 -1096 491 -1590 820 -149 99
-300 204 -318 219 -6 7 31 156 134 534 l40 147 -92 88 c-172 162 -392 386
-531 540 -26 29 -49 52 -52 52 -3 0 -10 -17 -15 -37z"/>
</g>
</svg>
